<svg id="Ebene_1" xmlns="http://www.w3.org/2000/svg" viewBox="0 0 493.8 51.3"><style>.st0{fill:#0083bc}.st1{fill:#002b56}</style><title>Element 1</title><path class="st0" d="M60.1 18.4c2.6 0 4.7-1.9 4.8-4.5v-.4c0-3.8-1.1-6.5-3.3-9-2.5-2.4-5-3.9-9.2-4H15.3C11.6.7 8.1 1.8 5.2 4.2 2.4 6.5.7 9.4.4 12.6c-.1 1.1-.1 3.4 0 4.5.5 7.9 9.5 12 15 12.1h33.4c2.2 0 7.1.9 7.1 6.3 0 4.3-2.6 6.2-6.7 6.3H12.3c-2.4 0-2.7-.8-2.7-2.6v-1c0-2.7-2.2-4.8-4.8-4.8-2.6 0-4.7 1.9-4.8 4.5v.4c0 3.8 1.1 6.5 3.3 9 2.5 2.4 5 3.9 9.2 4H49.8c4.4-.1 7.1-1.3 10-3.5 4.4-3.8 5.3-7 5.2-13.5 0-3.3-1-6.4-3.1-8.9-3.1-3.6-7-5.5-11.5-5.7H14.7c-2.9 0-5.2-2.2-5.2-4.9 0-2.8 2.2-4.9 5-4.9h38.2c2.4 0 2.7.8 2.7 2.6v1c-.1 2.7 2 4.9 4.7 4.9zM201.8 18.4c2.6 0 4.7-1.9 4.8-4.5v-.4c0-3.8-1.1-6.5-3.3-9-2.5-2.4-5-3.9-9.2-4H157c-3.7.2-7.2 1.3-10.1 3.7-2.8 2.3-4.5 5.2-4.8 8.4-.1 1.1-.1 3.4 0 4.5.5 7.9 9.5 12 15 12.1h33.4c2.2 0 7.1.9 7.1 6.3 0 4.3-2.6 6.2-6.7 6.3H154.1c-2.4 0-2.7-.8-2.7-2.6v-1c0-2.7-2.2-4.8-4.8-4.8-2.6 0-4.7 1.9-4.8 4.5v.4c0 3.8 1.1 6.5 3.3 9 2.5 2.4 5 3.9 9.2 4H191.6c4.4-.1 7.1-1.3 10-3.5 4.4-3.8 5.3-7 5.2-13.5 0-3.3-1-6.4-3.1-8.9-3.1-3.6-7-5.5-11.5-5.7h-35.7c-2.9 0-5.2-2.2-5.2-4.9 0-2.8 2.2-4.9 5-4.9h38.2c2.4 0 2.7.8 2.7 2.6v1c-.2 2.7 2 4.9 4.6 4.9z"/><path class="st1" d="M489 18.4c2.6 0 4.7-1.9 4.8-4.5v-.4c0-3.8-1.1-6.5-3.3-9-2.5-2.4-5-3.9-9.2-4h-37.2c-3.7.2-7.2 1.3-10.1 3.7-2.8 2.3-4.5 5.2-4.8 8.4-.1 1.1-.1 3.4 0 4.5.5 7.9 9.5 12 15 12.1h33.4c2.2 0 7.1.9 7.1 6.3 0 4.3-2.6 6.2-6.7 6.3H441.2c-2.4 0-2.7-.8-2.7-2.6v-1c0-2.7-2.2-4.8-4.8-4.8-2.6 0-4.7 1.9-4.8 4.5v.4c0 3.8 1.1 6.5 3.3 9 2.5 2.4 5 3.9 9.2 4H478.7c4.4-.1 7.1-1.3 10-3.5 4.4-3.8 5.3-7 5.2-13.5 0-3.3-1-6.4-3.1-8.9-3.1-3.6-7-5.5-11.5-5.7h-35.7c-2.9 0-5.2-2.2-5.2-4.9 0-2.8 2.2-4.9 5-4.9h38.2c2.4 0 2.7.8 2.7 2.6v1c-.2 2.7 2 4.9 4.7 4.9z"/><path class="st0" d="M132.8 0c-1.3 0-2.5.6-3.5 1.5L104.8 21 80.5 1.6C79.5.7 78.3.1 77 .1c-2.6 0-4.4 2.2-4.4 4.8 0 1.2.5 2.2 1.3 2.9l26.2 21.9v18c0 2 2.1 3.6 4.6 3.6 2.6 0 4.7-1.5 4.7-3.5V29.7l26.6-22c.8-.7 1.3-1.7 1.3-2.9 0-2.6-1.9-4.8-4.5-4.8z"/><path class="st1" d="M277.2 5.2c0-2.6-2.1-4.6-4.7-4.6h-55.3-.4c-2.5.1-4.5 2.2-4.5 4.7s1.9 4.5 4.3 4.7h23.5v37.7c0 1.8 1.8 3.3 4 3.5.1 0 .2.1.3.1H244.7c2.6 0 4.7-1.5 4.7-3.5V9.9l24.1-.1c2.1-.4 3.7-2.4 3.7-4.6zM289 9.9h55.4c2.5 0 4.6-2.1 4.6-4.6 0-2.5-2.1-4.6-4.6-4.6H289c-2.5 0-4.6 2.1-4.6 4.6 0 2.5 2.1 4.6 4.6 4.6zM344.3 42h-50.6V29.1h45.1c2.4 0 4.4-2 4.4-4.4v-.5c0-2.4-2-4.4-4.4-4.4h-50c-2.4 0-4.4 2-4.4 4.4V46.9c0 2.5 2.1 4.6 4.6 4.6h55.3c2.5 0 4.6-2.1 4.6-4.6v-.1c0-2.7-2.1-4.8-4.6-4.8zM415.9 18.4c2.6 0 4.7-1.9 4.8-4.5v-.4c0-3.8-1.1-6.5-3.3-9-2.5-2.4-5-3.9-9.2-4h-38.5c-7.6.2-13.7 6.5-14 14.3v22.1c.3 7.8 6.4 14.2 14 14.3h38.5c4.2-.1 6.7-1.5 9.2-4 2.2-2.5 3.2-5.2 3.3-9v-.4c-.1-2.6-2.2-4.5-4.8-4.5-2.7 0-4.8 2.2-4.8 4.8v1c0 1.8-.3 2.6-2.7 2.6h-37.3c-1.1 0-2.6.2-4.3-1.7-1.2-1.1-1.9-2.7-1.9-4.4V15.9c0-1.7.7-3.3 1.9-4.4 1.6-1.9 3.2-1.7 4.3-1.7h37.3c2.4 0 2.7.8 2.7 2.6v1c0 2.8 2.1 5 4.8 5z"/></svg>